<svg version="1.1" xmlns="http://www.w3.org/2000/svg" viewBox="-5727.598938287989 -1067.7 14091.298938287988 2681.6"><desc>Created with Snap</desc><defs></defs><g><g><g transform="matrix(0.5,0,0,-0.5,0,0)"><path d="M812 -21Q477 -21 288 181Q100 383 100 734Q100 957 188 1126Q276 1296 447 1391Q618 1486 851 1486Q1118 1486 1309 1371L1221 1169Q1039 1267 856 1267Q634 1267 507 1123Q380 979 380 731Q380 485 493 342Q606 199 824 199Q964 199 1078 243L1078 583L771 583L773 796L1333 796L1333 89Q1197 33 1075 6Q954 -21 812 -21ZM1984 -15Q1871 -15 1796 11Q1722 38 1679 96Q1636 154 1619 234Q1602 314 1602 433L1602 1504L1864 1521L1864 438Q1864 290 1899 237Q1934 185 2035 185Q2085 185 2162 196L2169 9Q2168 9 2144 4Q2121 -1 2099 -5Q2078 -8 2045 -12Q2012 -15 1984 -15ZM2778 178Q2911 178 2978 275Q3045 372 3045 553Q3045 736 2978 832Q2911 928 2776 928Q2643 928 2575 831Q2508 735 2508 552Q2508 372 2576 275Q2644 178 2778 178ZM2771 -21Q2527 -21 2387 137Q2247 295 2247 553Q2247 819 2387 972Q2527 1126 2782 1126Q3028 1126 3167 969Q3307 813 3307 553Q3307 290 3166 134Q3025 -21 2771 -21ZM4110 -21Q3998 -21 3906 28Q3815 78 3774 141L3748 1L3521 1L3521 1504L3783 1521L3783 1181Q3783 1082 3777 956Q3907 1126 4116 1126Q4326 1126 4445 970Q4565 814 4565 562Q4565 300 4441 139Q4318 -21 4110 -21ZM4047 178Q4164 178 4234 277Q4304 376 4304 558Q4304 741 4235 835Q4167 929 4050 929Q3784 929 3781 570Q3781 368 3848 273Q3915 178 4047 178ZM5069 -21Q4916 -21 4821 63Q4727 148 4727 307Q4727 478 4839 560Q4951 643 5177 665Q5208 669 5244 673Q5280 677 5325 681Q5370 685 5396 688L5396 746Q5396 846 5350 891Q5304 937 5210 937Q5076 937 4879 862Q4878 865 4846 953Q4814 1041 4813 1043Q5007 1126 5233 1126Q5455 1126 5556 1029Q5657 933 5657 717L5657 0L5463 0Q5462 4 5441 67Q5420 130 5420 134Q5338 54 5259 16Q5181 -21 5069 -21ZM5140 165Q5231 165 5298 208Q5366 252 5395 314L5395 526Q5392 526 5342 522Q5293 518 5289 518Q5130 504 5056 458Q4982 412 4982 310Q4982 240 5023 202Q5064 165 5140 165ZM6306 -15Q6193 -15 6118 11Q6044 38 6001 96Q5958 154 5941 234Q5924 314 5924 433L5924 1504L6186 1521L6186 438Q6186 290 6221 237Q6256 185 6357 185Q6407 185 6484 196L6491 9Q6490 9 6466 4Q6443 -1 6421 -5Q6400 -8 6367 -12Q6334 -15 6306 -15Z" fill="#fff" style=""></path></g></g><g transform="matrix(1,0,0,1,43,1060.7)"><g transform="matrix(0.5,0,0,-0.5,0,0)"><path d="M713 0L441 0L441 1248L14 1248L14 1465L1138 1465L1138 1248L713 1248L713 0ZM1548 0L1286 0L1286 1099L1506 1099L1540 931Q1648 1104 1853 1104Q1896 1104 1923 1100L1919 881Q1879 887 1836 887Q1691 887 1619 810Q1548 733 1548 596L1548 0ZM2373 -21Q2220 -21 2125 63Q2031 148 2031 307Q2031 478 2143 560Q2255 643 2481 665Q2512 669 2548 673Q2584 677 2629 681Q2674 685 2700 688L2700 746Q2700 846 2654 891Q2608 937 2514 937Q2380 937 2183 862Q2182 865 2150 953Q2118 1041 2117 1043Q2311 1126 2537 1126Q2759 1126 2860 1029Q2961 933 2961 717L2961 0L2767 0Q2766 4 2745 67Q2724 130 2724 134Q2642 54 2563 16Q2485 -21 2373 -21ZM2444 165Q2535 165 2602 208Q2670 252 2699 314L2699 526Q2696 526 2646 522Q2597 518 2593 518Q2434 504 2360 458Q2286 412 2286 310Q2286 240 2327 202Q2368 165 2444 165ZM3493 0L3231 0L3231 1099L3493 1099L3493 0ZM3494 1259L3231 1259L3231 1483L3494 1483L3494 1259ZM4028 0L3766 0L3766 1099L3977 1099L4006 960Q4174 1126 4379 1126Q4571 1126 4666 1015Q4762 905 4762 695L4762 0L4499 0L4499 663Q4498 796 4456 862Q4414 928 4305 928Q4220 928 4149 884Q4079 841 4047 775Q4028 697 4028 535L4028 0ZM5288 0L5026 0L5026 1099L5288 1099L5288 0ZM5289 1259L5026 1259L5026 1483L5289 1483L5289 1259ZM5823 0L5561 0L5561 1099L5772 1099L5801 960Q5969 1126 6174 1126Q6366 1126 6461 1015Q6557 905 6557 695L6557 0L6294 0L6294 663Q6293 796 6251 862Q6209 928 6100 928Q6015 928 5944 884Q5874 841 5842 775Q5823 697 5823 535L5823 0ZM7186 -492L7035 -492L7020 -280L7153 -280Q7384 -280 7476 -219Q7568 -157 7568 7Q7568 74 7562 152Q7536 116 7512 92Q7489 69 7453 46Q7418 23 7368 11Q7319 0 7256 0Q7038 0 6897 157Q6757 314 6757 562Q6757 694 6796 802Q6835 911 6902 981Q6969 1051 7056 1088Q7144 1126 7243 1126Q7464 1126 7572 965L7590 1099L7824 1099L7824 78Q7824 -4 7816 -70Q7808 -135 7788 -196Q7768 -256 7735 -301Q7703 -346 7654 -383Q7605 -420 7538 -444Q7472 -467 7384 -480Q7296 -492 7186 -492ZM7298 183Q7569 183 7572 546L7572 584Q7570 747 7504 836Q7438 925 7311 926Q7167 926 7093 827Q7019 729 7019 562Q7019 401 7093 292Q7168 183 7298 183ZM9287 -21Q8966 -21 8778 181Q8590 383 8590 739Q8590 1077 8786 1281Q8983 1486 9301 1486Q9558 1486 9736 1367L9651 1162Q9480 1267 9307 1267Q9105 1267 8987 1121Q8870 976 8870 731Q8870 477 8983 338Q9097 199 9307 199Q9491 199 9672 291L9708 79Q9540 -21 9287 -21ZM10403 178Q10536 178 10603 275Q10670 372 10670 553Q10670 736 10603 832Q10536 928 10401 928Q10268 928 10200 831Q10133 735 10133 552Q10133 372 10201 275Q10269 178 10403 178ZM10396 -21Q10152 -21 10012 137Q9872 295 9872 553Q9872 819 10012 972Q10152 1126 10407 1126Q10653 1126 10792 969Q10932 813 10932 553Q10932 290 10791 134Q10650 -21 10396 -21ZM11939 86Q11808 -21 11594 -21Q11380 -21 11249 86Q11119 193 11119 400L11119 1099L11382 1099L11382 410Q11382 287 11433 232Q11485 177 11597 177Q11707 177 11757 231Q11808 286 11808 410L11808 1099L12070 1099L12070 400Q12070 194 11939 86ZM12572 0L12310 0L12310 1099L12530 1099L12564 931Q12672 1104 12877 1104Q12920 1104 12947 1100L12943 881Q12903 887 12860 887Q12715 887 12643 810Q12572 733 12572 596L12572 0ZM13458 -20Q13215 -20 13069 63L13096 260Q13162 224 13264 195Q13366 167 13450 167Q13537 167 13585 199Q13634 232 13635 295Q13635 352 13589 385Q13544 418 13416 467Q13372 483 13359 488Q13207 547 13140 619Q13073 692 13073 816Q13073 966 13181 1046Q13290 1126 13484 1126Q13694 1126 13853 1047L13788 866Q13631 939 13489 939Q13410 939 13365 912Q13321 886 13321 832Q13321 781 13364 752Q13407 724 13532 678Q13536 677 13558 669Q13580 661 13592 656Q13743 601 13814 524Q13885 448 13885 325Q13884 160 13773 70Q13662 -20 13458 -20ZM14600 -21Q14335 -21 14187 131Q14040 284 14040 553Q14040 815 14179 970Q14318 1125 14558 1126Q14785 1126 14910 984Q15036 842 15036 607Q15036 590 15035 552Q15035 514 15035 496L14304 496Q14308 342 14388 257Q14469 173 14610 173Q14790 173 14956 267L14993 81Q14828 -21 14600 -21ZM14309 661L14789 661Q14789 795 14728 867Q14667 939 14559 939Q14458 939 14388 869Q14319 799 14309 661ZM15600 -20Q15357 -20 15211 63L15238 260Q15304 224 15406 195Q15508 167 15592 167Q15679 167 15727 199Q15776 232 15777 295Q15777 352 15731 385Q15686 418 15558 467Q15514 483 15501 488Q15349 547 15282 619Q15215 692 15215 816Q15215 966 15323 1046Q15432 1126 15626 1126Q15836 1126 15995 1047L15930 866Q15773 939 15631 939Q15552 939 15507 912Q15463 886 15463 832Q15463 781 15506 752Q15549 724 15674 678Q15678 677 15700 669Q15722 661 15734 656Q15885 601 15956 524Q16027 448 16027 325Q16026 160 15915 70Q15804 -20 15600 -20Z" fill="#fff" style=""></path></g></g><g transform="matrix(2.7435,0,0,2.7435,-5557.5721,1277.8936)"><g transform="matrix(0.5,0,0,-0.5,0,0)"><path d="M812 -21Q477 -21 288 181Q100 383 100 734Q100 957 188 1126Q276 1296 447 1391Q618 1486 851 1486Q1118 1486 1309 1371L1221 1169Q1039 1267 856 1267Q634 1267 507 1123Q380 979 380 731Q380 485 493 342Q606 199 824 199Q964 199 1078 243L1078 583L771 583L773 796L1333 796L1333 89Q1197 33 1075 6Q954 -21 812 -21ZM2179 0L1907 0L1907 1248L1480 1248L1480 1465L2604 1465L2604 1248L2179 1248L2179 0ZM3415 -21Q3094 -21 2906 181Q2718 383 2718 739Q2718 1077 2914 1281Q3111 1486 3429 1486Q3686 1486 3864 1367L3779 1162Q3608 1267 3435 1267Q3233 1267 3115 1121Q2998 976 2998 731Q2998 477 3111 338Q3225 199 3435 199Q3619 199 3800 291L3836 79Q3668 -21 3415 -21Z" fill="#fff" style=""></path></g></g></g></svg>